<svg xmlns="http://www.w3.org/2000/svg" width="48" height="48" viewBox="0 0 48 48">
  <g id="Group_5" data-name="Group 5" transform="translate(-615 -919)">
    <g id="Group_3" data-name="Group 3">
      <rect id="Area_SIZE:MEDIUM_STATE:DEFAULT_STYLE:STYLE2_" data-name="Area [SIZE:MEDIUM][STATE:DEFAULT][STYLE:STYLE2]" width="48" height="48" rx="24" transform="translate(615 919)" fill="rgba(0,0,0,0.85)"/>
      <g id="Area_ICON:feather_twitter_SIZE:MEDIUM_STATE:DEFAULT_STYLE:STYLE2_" data-name="Area [ICON:feather/twitter][SIZE:MEDIUM][STATE:DEFAULT][STYLE:STYLE2]" transform="translate(629 933)" fill="rgba(253,73,198,0.35)" stroke="#fff" stroke-width="1" opacity="0">
        <rect width="20" height="20" stroke="none"/>
        <rect x="0.5" y="0.5" width="19" height="19" fill="none"/>
      </g>
      <path id="b3ba56d6-af75-4819-b932-7fd3908e077c" d="M20.909,2.727a9.9,9.9,0,0,1-2.854,1.391,4.073,4.073,0,0,0-7.146,2.727v.91A9.691,9.691,0,0,1,2.727,3.636S-.909,11.818,7.273,15.455A10.59,10.59,0,0,1,.909,17.273c8.182,4.545,18.182,0,18.182-10.455a4.056,4.056,0,0,0-.073-.754A7.017,7.017,0,0,0,20.909,2.727Z" transform="translate(628.091 932.126)" fill="none" stroke="#fff" stroke-linecap="round" stroke-linejoin="round" stroke-width="1.818"/>
    </g>
  </g>
</svg>
