<svg xmlns="http://www.w3.org/2000/svg" width="48" height="48" viewBox="0 0 48 48">
  <g id="Group_1" data-name="Group 1" transform="translate(-807 -919)">
    <rect id="Area_SIZE:MEDIUM_STATE:DEFAULT_STYLE:STYLE2_" data-name="Area [SIZE:MEDIUM][STATE:DEFAULT][STYLE:STYLE2]" width="48" height="48" rx="24" transform="translate(807 919)" fill="rgba(0,0,0,0.85)"/>
    <g id="Area_ICON:feather_mail_SIZE:MEDIUM_STATE:DEFAULT_STYLE:STYLE2_" data-name="Area [ICON:feather/mail][SIZE:MEDIUM][STATE:DEFAULT][STYLE:STYLE2]" transform="translate(821 933)" fill="rgba(253,73,198,0.35)" stroke="#fff" stroke-width="1" opacity="0">
      <rect width="20" height="20" stroke="none"/>
      <rect x="0.5" y="0.5" width="19" height="19" fill="none"/>
    </g>
    <path id="_94d7208e-9e0e-47a9-8834-5f4e2aba531d" data-name="94d7208e-9e0e-47a9-8834-5f4e2aba531d" d="M4,4H20a2.006,2.006,0,0,1,2,2V18a2.006,2.006,0,0,1-2,2H4a2.006,2.006,0,0,1-2-2V6A2.006,2.006,0,0,1,4,4Z" transform="translate(819 931)" fill="none" stroke="#fff" stroke-linecap="round" stroke-linejoin="round" stroke-width="2"/>
    <path id="e7071858-637b-47ad-bc30-54b50aa704b1" d="M22,6,12,13,2,6" transform="translate(819 931)" fill="none" stroke="#fff" stroke-linecap="round" stroke-linejoin="round" stroke-width="2"/>
  </g>
</svg>
